<?xml version="1.0" standalone="no"?><!DOCTYPE svg PUBLIC "-//W3C//DTD SVG 1.1//EN" "http://www.w3.org/Graphics/SVG/1.1/DTD/svg11.dtd"><svg t="1605861894119" class="icon" viewBox="0 0 1024 1024" version="1.1" xmlns="http://www.w3.org/2000/svg" p-id="8615" id="mx_n_1605861894120" xmlns:xlink="http://www.w3.org/1999/xlink" width="200" height="200"><defs><style type="text/css"></style></defs><path d="M868.4 931H153.1c-34 0-61.6-27.6-61.6-61.6V491.1h840.9L930 869.5c0 34-27.6 61.5-61.6 61.5z" fill="#49E8CE" p-id="8616"></path><path d="M474.9 825c-6.8 0-13.6-2.6-18.8-7.8l-86.6-86.6c-10.4-10.4-10.4-27.2 0-37.5 10.4-10.4 27.2-10.4 37.5 0l86.6 86.6c10.4 10.4 10.4 27.2 0 37.5-5.1 5.2-11.9 7.8-18.7 7.8z" p-id="8617"></path><path d="M474.9 825c-6.8 0-13.6-2.6-18.8-7.8-10.4-10.4-10.4-27.2 0-37.5l158.2-158.2c10.4-10.4 27.2-10.4 37.5 0 10.4 10.4 10.4 27.2 0 37.5L493.7 817.3c-5.2 5.1-12 7.7-18.8 7.7z" p-id="8618"></path><path d="M849.7 957.6H171.8C112.9 957.6 65 909.7 65 850.8V264.2c0-58.9 47.9-106.8 106.8-106.8h677.9c58.9 0 106.8 47.9 106.8 106.8v41.1c0 14.7-11.9 26.5-26.5 26.5s-26.5-11.9-26.5-26.5v-41.1c0-29.6-24.1-53.7-53.7-53.7h-678c-29.6 0-53.7 24.1-53.7 53.7v586.6c0 29.6 24.1 53.7 53.7 53.7h677.9c30.5 0 56.2-24.6 56.2-53.7v-317c0-14.7 11.9-26.5 26.5-26.5s26.5 11.9 26.5 26.5v317c0.1 57.9-49.9 106.8-109.2 106.8z" p-id="8619"></path><path d="M354.1 305.3c-14.7 0-26.5-11.9-26.5-26.5V93c0-14.7 11.9-26.5 26.5-26.5 14.7 0 26.5 11.9 26.5 26.5v185.8c0 14.6-11.9 26.5-26.5 26.5zM668.8 305.3c-14.7 0-26.5-11.9-26.5-26.5V93c0-14.7 11.9-26.5 26.5-26.5s26.5 11.9 26.5 26.5v185.8c0.1 14.6-11.8 26.5-26.5 26.5zM932.5 658c-14.7 0-26.5-11.9-26.5-26.5V529.1c0-6.3-5.1-11.4-11.4-11.4H92.4c-14.7 0-26.5-11.9-26.5-26.5s11.9-26.5 26.5-26.5h802.1c35.5 0 64.5 28.9 64.5 64.5v102.4c0 14.5-11.9 26.4-26.5 26.4z" p-id="8620"></path><path d="M930.5 400.1m-26.5 0a26.5 26.5 0 1 0 53 0 26.5 26.5 0 1 0-53 0Z" fill="#49E8CE" p-id="8621"></path></svg>